<svg width="22" height="22" viewBox="0 0 22 22" fill="none" xmlns="http://www.w3.org/2000/svg">
<rect width="22" height="22" fill="#1E1E1E"/>
<g id="iPhone 13 mini - 1" clip-path="url(#clip0_0_1)">
<rect width="375" height="812" transform="translate(-307 -21)" fill="white"/>
<rect id="Rectangle 1" x="-313" y="-21" width="381" height="365" fill="#03052D"/>
<path id="Vector" d="M11 22C17.075 22 22 17.075 22 11C22 4.925 17.075 0 11 0C4.925 0 0 4.925 0 11C0 17.075 4.925 22 11 22ZM10.826 10.89C11.258 10.36 11.8 9.916 12.236 9.572C12.4794 9.38005 12.6749 9.13415 12.807 8.8537C12.9391 8.57325 13.0041 8.26594 12.9971 7.95603C12.99 7.64611 12.911 7.34208 12.7663 7.06793C12.6216 6.79379 12.4152 6.55703 12.1633 6.37635C11.9114 6.19568 11.6209 6.07603 11.3149 6.02685C11.0088 5.97768 10.6955 6.00033 10.3997 6.09301C10.1038 6.18568 9.83363 6.34586 9.61033 6.56088C9.38703 6.77591 9.21678 7.03989 9.113 7.332L8.781 8.276L6.895 7.61L7.228 6.667C7.43445 6.08155 7.77431 5.55216 8.22068 5.12073C8.66705 4.6893 9.20769 4.36765 9.79983 4.18124C10.392 3.99483 11.0194 3.94876 11.6324 4.04668C12.2454 4.14461 12.8272 4.38383 13.3318 4.74544C13.8364 5.10704 14.25 5.58111 14.5397 6.13013C14.8295 6.67915 14.9875 7.28806 15.0013 7.9087C15.0151 8.52933 14.8843 9.14467 14.6192 9.70602C14.3541 10.2674 13.962 10.7593 13.474 11.143C13.043 11.483 12.657 11.809 12.378 12.152C12.104 12.49 12 12.762 12 13V14.25H10V13C10 12.133 10.39 11.427 10.826 10.89ZM10 17.254V15.25H12.004V17.254H10Z" fill="white"/>
</g>
<defs>
<clipPath id="clip0_0_1">
<rect width="375" height="812" fill="white" transform="translate(-307 -21)"/>
</clipPath>
</defs>
</svg>
